<svg id="Layer_1" data-name="Layer 1" xmlns="http://www.w3.org/2000/svg" viewBox="0 0 3839 3000"><defs><style>.cls-1{fill:#5c3511;}.cls-2{fill:#be5817;}.cls-3{fill:none;stroke:#1d1d1b;stroke-miterlimit:10;stroke-width:27.67px;}</style></defs><path class="cls-1" d="M817.74,119.66,49.43,2922.58h1579.3V119.66ZM385.56,2390.83a101.38,101.38,0,1,1,101.38-101.37A101.37,101.37,0,0,1,385.56,2390.83ZM534,1877.63a101.38,101.38,0,1,1,101.37-101.38A101.37,101.37,0,0,1,534,1877.63Zm152.16-513.21A101.38,101.38,0,1,1,787.5,1263.05,101.36,101.36,0,0,1,686.13,1364.42Zm153-513.2A101.38,101.38,0,1,1,940.46,749.84,101.37,101.37,0,0,1,839.08,851.22Z"/><rect class="cls-2" x="2706.88" y="1362.36" width="810.99" height="1462.29" transform="translate(-576.17 1412.12) rotate(-23.46)"/><rect class="cls-2" x="1628.73" y="119.66" width="810.99" height="2802.91"/><path class="cls-2" d="M3720.9,363.8c-91.54-210.92-377.21-290.13-638.08-176.91-191.77,83.22-316.74,247.26-333.13,412.1l-139.91,562.68,404.36-183.18c119,38,263,31.71,400.15-27.81C3675.16,837.47,3812.43,574.71,3720.9,363.8Z"/><path class="cls-3" d="M608.19,884.12a155.25,155.25,0,1,1,199.59-37.85"/><path class="cls-3" d="M456,1400.67a155.24,155.24,0,1,1,199.59-37.84"/><path class="cls-3" d="M315.93,1907.35a155.23,155.23,0,1,1,199.59-37.84"/><path class="cls-3" d="M177.3,2419.56a155.24,155.24,0,1,1,199.59-37.85"/></svg>