<svg id="Layer_1" data-name="Layer 1" xmlns="http://www.w3.org/2000/svg" viewBox="0 0 4350.57 1643.14"><defs><style>.cls-1{fill:#5c3511;}.cls-2,.cls-4{fill:#be5817;}.cls-3{fill:none;stroke:#1d1d1b;stroke-miterlimit:10;stroke-width:13.68px;}.cls-4{font-size:554.36px;font-family:Poppins-Black, Poppins;font-weight:800;}</style></defs><path class="cls-1" d="M419.49,110,44.5,1514.15H815.31V110ZM208.56,1247.77c-27.33,0-49.48-22.74-49.48-50.78s22.15-50.79,49.48-50.79S258,1168.94,258,1197,235.88,1247.77,208.56,1247.77ZM281,990.68c-27.33,0-49.48-22.74-49.48-50.78s22.15-50.79,49.48-50.79,49.48,22.74,49.48,50.79S308.32,990.68,281,990.68Zm74.26-257.09c-27.32,0-49.47-22.74-49.47-50.78S327.93,632,355.25,632s49.48,22.74,49.48,50.79S382.58,733.59,355.25,733.59ZM429.91,476.5c-27.33,0-49.48-22.74-49.48-50.78s22.15-50.79,49.48-50.79,49.47,22.74,49.47,50.79S457.23,476.5,429.91,476.5Z"/><polygon class="cls-2" points="1863.05 1353.94 1499.95 1515.68 1215.82 843.7 1578.92 681.96 1863.05 1353.94"/><rect class="cls-2" x="815.31" y="110.03" width="395.82" height="1404.12"/><path class="cls-2" d="M1836.44,232.33C1791.76,126.67,1652.33,87,1525,143.7c-93.6,41.69-154.59,123.87-162.59,206.45L1294.13,632l197.36-91.76c58.1,19,128.37,15.88,195.3-13.93C1814.12,469.61,1881.11,338,1836.44,232.33Z"/><path class="cls-3" d="M317.22,493a78.13,78.13,0,0,1-37.73-67.26c0-43,33.92-77.76,75.76-77.76S431,382.77,431,425.72A78.7,78.7,0,0,1,414.63,474"/><path class="cls-3" d="M243,751.75a78.12,78.12,0,0,1-37.72-67.26c0-43,33.92-77.77,75.76-77.77s75.76,34.82,75.76,77.77a78.7,78.7,0,0,1-16.39,48.3"/><path class="cls-3" d="M174.57,1005.57a78.12,78.12,0,0,1-37.72-67.26c0-42.95,33.92-77.77,75.76-77.77s75.76,34.82,75.76,77.77A78.72,78.72,0,0,1,272,986.61"/><path class="cls-3" d="M106.91,1262.16a78.13,78.13,0,0,1-37.73-67.26c0-43,33.92-77.77,75.77-77.77s75.76,34.82,75.76,77.77a78.72,78.72,0,0,1-16.39,48.3"/><text class="cls-4" transform="translate(1918.41 1046.31) scale(0.97 1)">AKSARA</text></svg>