<svg xmlns="http://www.w3.org/2000/svg" viewBox="0 0 4350.57 1643.14"><defs><style>.cls-1,.cls-2{fill:none;stroke:#fff;stroke-miterlimit:10;stroke-width:16px;}.cls-2{font-size:554.36px;font-family:Poppins-Black, Poppins;font-weight:800;}</style></defs><g id="Layer_2" data-name="Layer 2"><path class="cls-1" d="M411,140.55,36,1544.67H806.77V140.55ZM200,1278.29c-27.33,0-49.48-22.74-49.48-50.78s22.15-50.79,49.48-50.79,49.47,22.74,49.47,50.79S227.34,1278.29,200,1278.29Zm72.43-257.09c-27.33,0-49.48-22.74-49.48-50.78s22.15-50.79,49.48-50.79,49.48,22.74,49.48,50.79S299.77,1021.2,272.45,1021.2Zm74.26-257.09c-27.32,0-49.47-22.74-49.47-50.78s22.15-50.79,49.47-50.79,49.48,22.74,49.48,50.79S374,764.11,346.71,764.11ZM421.37,507c-27.33,0-49.48-22.74-49.48-50.78s22.15-50.79,49.48-50.79,49.47,22.74,49.47,50.79S448.69,507,421.37,507Z"/><polygon class="cls-1" points="1854.51 1384.46 1491.41 1546.2 1207.28 874.22 1570.38 712.48 1854.51 1384.46"/><rect class="cls-1" x="806.77" y="140.55" width="395.82" height="1404.12"/><path class="cls-1" d="M1827.9,262.85c-44.68-105.66-184.11-145.34-311.43-88.63-93.6,41.7-154.59,123.87-162.59,206.45l-68.29,281.87L1483,570.78c58.1,19,128.37,15.88,195.3-13.93C1805.57,500.14,1872.57,368.51,1827.9,262.85Z"/><path class="cls-1" d="M308.67,523.5A78.14,78.14,0,0,1,271,456.24c0-42.95,33.92-77.76,75.76-77.76s75.77,34.81,75.77,77.76a78.7,78.7,0,0,1-16.39,48.3"/><path class="cls-1" d="M234.41,782.27A78.12,78.12,0,0,1,196.69,715c0-43,33.92-77.76,75.76-77.76s75.76,34.81,75.76,77.76a78.7,78.7,0,0,1-16.39,48.3"/><path class="cls-1" d="M166,1036.09a78.13,78.13,0,0,1-37.73-67.26c0-43,33.92-77.76,75.77-77.76s75.76,34.81,75.76,77.76a78.7,78.7,0,0,1-16.39,48.3"/><path class="cls-1" d="M98.37,1292.68a78.13,78.13,0,0,1-37.73-67.26c0-43,33.92-77.77,75.77-77.77s75.76,34.82,75.76,77.77a78.7,78.7,0,0,1-16.39,48.3"/><text class="cls-2" transform="translate(1909.87 1076.83) scale(0.97 1)">AKSARA</text></g></svg>